<svg class="animated" id="freepik_stories-literature" xmlns="http://www.w3.org/2000/svg" viewBox="0 0 500 500" version="1.1" xmlns:xlink="http://www.w3.org/1999/xlink" xmlns:svgjs="http://svgjs.com/svgjs"><style>svg#freepik_stories-literature:not(.animated) .animable {opacity: 0;}svg#freepik_stories-literature.animated #freepik--Letters--inject-2 {animation: 6s Infinite  linear floating;animation-delay: 0s;}            @keyframes floating {                0% {                    opacity: 1;                    transform: translateY(0px);                }                50% {                    transform: translateY(-10px);                }                100% {                    opacity: 1;                    transform: translateY(0px);                }            }        </style><g id="freepik--background-simple--inject-2" class="animable" style="transform-origin: 251.424px 252.194px;"><path d="M161.32,361.51c-39-11.24-93.22-59.29-96.41-101.09C62.72,231.81,69,210.35,94,191,158,141.2,222.69,232.82,293.37,168.31c82-74.84,164.66-21.25,140.8,65.44C409.87,322,295.4,400.13,161.32,361.51Z" style="fill: rgb(64, 123, 255); transform-origin: 251.424px 252.194px;" id="elup3fagpz84" class="animable"></path><g id="elujhprr7hd2r"><path d="M161.32,361.51c-39-11.24-93.22-59.29-96.41-101.09C62.72,231.81,69,210.35,94,191,158,141.2,222.69,232.82,293.37,168.31c82-74.84,164.66-21.25,140.8,65.44C409.87,322,295.4,400.13,161.32,361.51Z" style="fill: rgb(255, 255, 255); opacity: 0.9; transform-origin: 251.424px 252.194px;" class="animable"></path></g></g><g id="freepik--Shadow--inject-2" class="animable" style="transform-origin: 250.12px 438.79px;"><ellipse cx="250.12" cy="438.79" rx="200.45" ry="10.01" style="fill: rgb(245, 245, 245); transform-origin: 250.12px 438.79px;" id="elfyn1ggs2zae" class="animable"></ellipse></g><g id="freepik--Typewriter--inject-2" class="animable" style="transform-origin: 251.345px 319.845px;"><path d="M346.81,314.61H156v-39a4.34,4.34,0,0,1,4.34-4.35H342.46a4.35,4.35,0,0,1,4.35,4.35Z" style="fill: rgb(64, 123, 255); transform-origin: 251.405px 292.935px;" id="elhkyn6ozfkxr" class="animable"></path><g id="eldcyqpecqp4b"><g style="opacity: 0.2; transform-origin: 251.4px 292.955px;" class="animable"><path d="M160.37,271.29h182.1a4.33,4.33,0,0,1,4.33,4.33v39a0,0,0,0,1,0,0H156a0,0,0,0,1,0,0v-39A4.33,4.33,0,0,1,160.37,271.29Z" id="el6ii16pf3wf8" class="animable" style="transform-origin: 251.4px 292.955px;"></path></g></g><rect x="160.34" y="202.63" width="182.17" height="111.97" style="fill: rgb(38, 50, 56); transform-origin: 251.425px 258.615px;" id="elkxz1vty0jx" class="animable"></rect><g id="elt7aq7bvdodh"><g style="opacity: 0.9; transform-origin: 251.425px 258.615px;" class="animable"><rect x="160.34" y="202.63" width="182.17" height="111.97" style="fill: rgb(255, 255, 255); transform-origin: 251.425px 258.615px;" id="el0974prrngbt9" class="animable"></rect></g></g><g id="el77gb1pqyhfm"><g style="opacity: 0.2; transform-origin: 250.715px 236.58px;" class="animable"><path d="M321.54,237.08H179.89a.5.5,0,0,1,0-1H321.54a.5.5,0,1,1,0,1Z" id="el7y0uhw2t9q" class="animable" style="transform-origin: 250.715px 236.58px;"></path></g></g><g id="elixrsvkayu6f"><g style="opacity: 0.2; transform-origin: 250.715px 244.16px;" class="animable"><path d="M321.54,244.66H179.89a.5.5,0,0,1,0-1H321.54a.5.5,0,1,1,0,1Z" id="el8baizlfxin7" class="animable" style="transform-origin: 250.715px 244.16px;"></path></g></g><g id="el5bk04dbd60t"><g style="opacity: 0.2; transform-origin: 250.72px 251.74px;" class="animable"><path d="M321.54,252.24H179.89a.5.5,0,0,1-.5-.5.51.51,0,0,1,.5-.5H321.54a.51.51,0,0,1,.51.5A.5.5,0,0,1,321.54,252.24Z" id="el8ygaris8qr9" class="animable" style="transform-origin: 250.72px 251.74px;"></path></g></g><g id="elnk3t1qzdyar"><g style="opacity: 0.2; transform-origin: 250.816px 259.33px;" class="animable"><path d="M321.54,259.83H179.89a.51.51,0,0,1,0-1H321.54a.51.51,0,1,1,0,1Z" id="elpo8k7ykng5" class="animable" style="transform-origin: 250.816px 259.33px;"></path></g></g><g id="elmsa8df0mwur"><g style="opacity: 0.2; transform-origin: 250.72px 266.91px;" class="animable"><path d="M321.54,267.41H179.89a.51.51,0,0,1-.5-.5.5.5,0,0,1,.5-.5H321.54a.5.5,0,0,1,.51.5A.51.51,0,0,1,321.54,267.41Z" id="ela0f2p6sbtc" class="animable" style="transform-origin: 250.72px 266.91px;"></path></g></g><g id="elo82nlbq98nc"><g style="opacity: 0.2; transform-origin: 202.845px 274.5px;" class="animable"><path d="M225.8,275H179.89a.5.5,0,0,1,0-1H225.8a.5.5,0,0,1,0,1Z" id="elrtdgkmuc7qp" class="animable" style="transform-origin: 202.845px 274.5px;"></path></g></g><g id="ela3j8mhnqol"><g style="opacity: 0.2; transform-origin: 250.816px 297.24px;" class="animable"><path d="M321.54,297.74H179.89a.51.51,0,0,1,0-1H321.54a.51.51,0,1,1,0,1Z" id="el4qhhxk4b4d5" class="animable" style="transform-origin: 250.816px 297.24px;"></path></g></g><g id="elsq0cdgzed4a"><g style="opacity: 0.2; transform-origin: 250.75px 224.1px;" class="animable"><path d="M287.47,224.6H214a.5.5,0,0,1,0-1h73.5a.5.5,0,0,1,0,1Z" id="el6bfvlw95s52" class="animable" style="transform-origin: 250.75px 224.1px;"></path></g></g><path d="M380.85,437.06h-259a5.32,5.32,0,0,1-5.26-6.15l.53-3.4.11-.66,16-101.15c.06-.37.13-.74.22-1.1l.18-.65a13.13,13.13,0,0,1,12.59-9.34h210.3A13.15,13.15,0,0,1,369.07,324l.18.65c.08.36.15.73.21,1.1l16,101.15.11.66.54,3.4A5.33,5.33,0,0,1,380.85,437.06Z" style="fill: rgb(64, 123, 255); transform-origin: 251.345px 375.835px;" id="elasvvz9ssk98" class="animable"></path><polygon points="385.57 427.51 117.08 427.51 117.19 426.85 385.46 426.85 385.57 427.51" style="fill: rgb(38, 50, 56); transform-origin: 251.325px 427.18px;" id="eliv3j1bgrfcl" class="animable"></polygon><g id="el959lt384rvt"><g style="opacity: 0.3; transform-origin: 251.326px 386.655px;" class="animable"><path d="M144.79,360.18l-8.62,52a2.91,2.91,0,0,0,2.87,3.38H363.62a2.9,2.9,0,0,0,2.86-3.38l-8.62-52a2.9,2.9,0,0,0-2.86-2.43H147.66A2.91,2.91,0,0,0,144.79,360.18Z" id="el9i5rnd3vpfk" class="animable" style="transform-origin: 251.326px 386.655px;"></path></g></g><path d="M161.79,368.21a4.71,4.71,0,1,1-4.71-4.71A4.71,4.71,0,0,1,161.79,368.21Z" style="fill: rgb(255, 255, 255); transform-origin: 157.08px 368.21px;" id="eluluwl7h0jq" class="animable"></path><path d="M176.39,368.21a4.72,4.72,0,1,1-4.72-4.71A4.71,4.71,0,0,1,176.39,368.21Z" style="fill: rgb(255, 255, 255); transform-origin: 171.67px 368.22px;" id="el06hyt3go5twh" class="animable"></path><path d="M191,368.21a4.71,4.71,0,1,1-4.71-4.71A4.71,4.71,0,0,1,191,368.21Z" style="fill: rgb(255, 255, 255); transform-origin: 186.29px 368.21px;" id="elkr8714e75q8" class="animable"></path><path d="M205.57,368.21a4.71,4.71,0,1,1-4.71-4.71A4.71,4.71,0,0,1,205.57,368.21Z" style="fill: rgb(255, 255, 255); transform-origin: 200.86px 368.21px;" id="els8495qm1le" class="animable"></path><path d="M220.17,368.21a4.72,4.72,0,1,1-4.71-4.71A4.71,4.71,0,0,1,220.17,368.21Z" style="fill: rgb(255, 255, 255); transform-origin: 215.45px 368.22px;" id="eleqg5eufb2a7" class="animable"></path><path d="M234.76,368.21a4.71,4.71,0,1,1-4.71-4.71A4.71,4.71,0,0,1,234.76,368.21Z" style="fill: rgb(255, 255, 255); transform-origin: 230.05px 368.21px;" id="elwdjmrk9mv3l" class="animable"></path><path d="M249.36,368.21a4.72,4.72,0,1,1-4.71-4.71A4.71,4.71,0,0,1,249.36,368.21Z" style="fill: rgb(255, 255, 255); transform-origin: 244.64px 368.22px;" id="elb51w6j1wka8" class="animable"></path><path d="M264,368.21a4.71,4.71,0,1,1-4.71-4.71A4.71,4.71,0,0,1,264,368.21Z" style="fill: rgb(255, 255, 255); transform-origin: 259.29px 368.21px;" id="elv4qmb2mhioc" class="animable"></path><path d="M278.55,368.21a4.72,4.72,0,1,1-4.72-4.71A4.71,4.71,0,0,1,278.55,368.21Z" style="fill: rgb(255, 255, 255); transform-origin: 273.83px 368.22px;" id="el4bwnsxu3u69" class="animable"></path><path d="M293.14,368.21a4.71,4.71,0,1,1-4.71-4.71A4.71,4.71,0,0,1,293.14,368.21Z" style="fill: rgb(255, 255, 255); transform-origin: 288.43px 368.21px;" id="els7thgkct6ub" class="animable"></path><path d="M307.74,368.21A4.72,4.72,0,1,1,303,363.5,4.71,4.71,0,0,1,307.74,368.21Z" style="fill: rgb(255, 255, 255); transform-origin: 303.02px 368.22px;" id="elhegjndvheav" class="animable"></path><path d="M322.33,368.21a4.72,4.72,0,1,1-4.71-4.71A4.71,4.71,0,0,1,322.33,368.21Z" style="fill: rgb(255, 255, 255); transform-origin: 317.61px 368.22px;" id="eldv4rrcsf9r5" class="animable"></path><path d="M336.92,368.21a4.71,4.71,0,1,1-4.71-4.71A4.71,4.71,0,0,1,336.92,368.21Z" style="fill: rgb(255, 255, 255); transform-origin: 332.21px 368.21px;" id="el0y7y1o0j1xxe" class="animable"></path><path d="M351.52,368.21a4.72,4.72,0,1,1-4.71-4.71A4.71,4.71,0,0,1,351.52,368.21Z" style="fill: rgb(255, 255, 255); transform-origin: 346.8px 368.22px;" id="elocsv7brazlr" class="animable"></path><circle cx="157.08" cy="384.04" r="4.71" style="fill: rgb(255, 255, 255); transform-origin: 157.08px 384.04px;" id="el2nnbcspc04e" class="animable"></circle><circle cx="171.67" cy="384.04" r="4.71" style="fill: rgb(255, 255, 255); transform-origin: 171.67px 384.04px;" id="elhtm87z58n5" class="animable"></circle><path d="M191,384a4.71,4.71,0,1,1-4.71-4.72A4.71,4.71,0,0,1,191,384Z" style="fill: rgb(255, 255, 255); transform-origin: 186.29px 383.99px;" id="el9opmjxr1msd" class="animable"></path><path d="M205.57,384a4.71,4.71,0,1,1-4.71-4.72A4.71,4.71,0,0,1,205.57,384Z" style="fill: rgb(255, 255, 255); transform-origin: 200.86px 383.99px;" id="elv596ju0mmld" class="animable"></path><circle cx="215.46" cy="384.04" r="4.71" style="fill: rgb(255, 255, 255); transform-origin: 215.46px 384.04px;" id="ele7md8yebuv" class="animable"></circle><circle cx="230.05" cy="384.04" r="4.71" style="fill: rgb(255, 255, 255); transform-origin: 230.05px 384.04px;" id="el73doejidrli" class="animable"></circle><path d="M249.36,384a4.72,4.72,0,1,1-4.71-4.72A4.71,4.71,0,0,1,249.36,384Z" style="fill: rgb(255, 255, 255); transform-origin: 244.64px 384px;" id="elo63qgaq6ws" class="animable"></path><path d="M264,384a4.71,4.71,0,1,1-4.71-4.72A4.71,4.71,0,0,1,264,384Z" style="fill: rgb(255, 255, 255); transform-origin: 259.29px 383.99px;" id="elhekv9kznrq9" class="animable"></path><circle cx="273.83" cy="384.04" r="4.71" style="fill: rgb(255, 255, 255); transform-origin: 273.83px 384.04px;" id="elotwcifxzzz" class="animable"></circle><circle cx="288.43" cy="384.04" r="4.71" style="fill: rgb(255, 255, 255); transform-origin: 288.43px 384.04px;" id="elebo5i9azin9" class="animable"></circle><path d="M307.74,384a4.72,4.72,0,1,1-4.72-4.72A4.71,4.71,0,0,1,307.74,384Z" style="fill: rgb(255, 255, 255); transform-origin: 303.02px 384px;" id="elt0fh3dnp95" class="animable"></path><path d="M322.33,384a4.72,4.72,0,1,1-4.71-4.72A4.71,4.71,0,0,1,322.33,384Z" style="fill: rgb(255, 255, 255); transform-origin: 317.61px 384px;" id="elqg8citiougc" class="animable"></path><circle cx="332.21" cy="384.04" r="4.71" style="fill: rgb(255, 255, 255); transform-origin: 332.21px 384.04px;" id="ele99ph8qjr7" class="animable"></circle><circle cx="346.81" cy="384.04" r="4.71" style="fill: rgb(255, 255, 255); transform-origin: 346.81px 384.04px;" id="elelsxxj93b8k" class="animable"></circle><path d="M191,399.86a4.71,4.71,0,1,1-4.71-4.71A4.71,4.71,0,0,1,191,399.86Z" style="fill: rgb(255, 255, 255); transform-origin: 186.29px 399.86px;" id="el2p30bnc28zs" class="animable"></path><path d="M322.33,399.86a4.72,4.72,0,1,1-4.71-4.71A4.71,4.71,0,0,1,322.33,399.86Z" style="fill: rgb(255, 255, 255); transform-origin: 317.61px 399.87px;" id="eldbwawumb1c4" class="animable"></path><rect x="200.86" y="396.43" width="105.86" height="8.14" rx="4.06" style="fill: rgb(255, 255, 255); transform-origin: 253.79px 400.5px;" id="elqga7rozp6k" class="animable"></rect><path d="M369.25,324.6H133.41l.18-.65H369.07Z" style="fill: rgb(38, 50, 56); transform-origin: 251.33px 324.275px;" id="ela5bnc59ir" class="animable"></path><polygon points="147.35 307.99 146.44 314.61 230.25 314.61 230.25 307.99 147.35 307.99" style="fill: rgb(38, 50, 56); transform-origin: 188.345px 311.3px;" id="el5i5zmoxb7bm" class="animable"></polygon><polygon points="272.4 307.99 272.4 314.61 356.22 314.61 355.31 307.99 272.4 307.99" style="fill: rgb(38, 50, 56); transform-origin: 314.31px 311.3px;" id="elmuejahrtcl" class="animable"></polygon><path d="M335.64,308h-1V289.61a2.28,2.28,0,0,0-2.27-2.28H170.29a2.28,2.28,0,0,0-2.27,2.28V308h-1V289.61a3.28,3.28,0,0,1,3.28-3.28H332.37a3.28,3.28,0,0,1,3.27,3.28Z" style="fill: rgb(38, 50, 56); transform-origin: 251.33px 297.165px;" id="elfhgy9696k1" class="animable"></path><rect x="175.67" y="284.21" width="31.04" height="5.25" style="fill: rgb(64, 123, 255); transform-origin: 191.19px 286.835px;" id="el1sntv9u6a5w" class="animable"></rect><rect x="296.18" y="284.21" width="31.04" height="5.25" style="fill: rgb(64, 123, 255); transform-origin: 311.7px 286.835px;" id="eli3kr7dh3jy" class="animable"></rect><polygon points="255.94 302.54 255.94 314.61 244.1 314.61 244.1 302.54 248.56 302.54 248.56 305.66 251.47 305.66 251.47 302.54 255.94 302.54" style="fill: rgb(64, 123, 255); transform-origin: 250.02px 308.575px;" id="el6v7sidtwws" class="animable"></polygon><g id="el9nqphu4eoou"><g style="opacity: 0.2; transform-origin: 250.02px 308.575px;" class="animable"><polygon points="255.94 302.54 255.94 314.61 244.1 314.61 244.1 302.54 248.56 302.54 248.56 305.66 251.47 305.66 251.47 302.54 255.94 302.54" id="elbtf1gxx16ri" class="animable" style="transform-origin: 250.02px 308.575px;"></polygon></g></g><rect x="140.17" y="294" width="20.17" height="6.47" style="fill: rgb(38, 50, 56); transform-origin: 150.255px 297.235px;" id="elwnmn1ldxygb" class="animable"></rect><g id="el72zv8vo21kw"><g style="opacity: 0.5; transform-origin: 150.255px 297.235px;" class="animable"><rect x="140.17" y="294" width="20.17" height="6.47" style="fill: rgb(255, 255, 255); transform-origin: 150.255px 297.235px;" id="el81wx5j5fcmq" class="animable"></rect></g></g><rect x="140.17" y="289.89" width="8.06" height="15.04" style="fill: rgb(64, 123, 255); transform-origin: 144.2px 297.41px;" id="el03gdnqklzbbc" class="animable"></rect><rect x="121.98" y="330.48" width="256.64" height="7.19" rx="3.59" style="fill: rgb(64, 123, 255); transform-origin: 250.3px 334.075px;" id="elwnxj984wn5b" class="animable"></rect><g id="ele9rwpksaq7b"><g style="opacity: 0.3; transform-origin: 250.3px 334.075px;" class="animable"><rect x="121.98" y="330.48" width="256.64" height="7.19" rx="3.59" style="fill: rgb(255, 255, 255); transform-origin: 250.3px 334.075px;" id="eldahc6bjd7lb" class="animable"></rect></g></g><circle cx="147.21" cy="348.36" r="3.01" style="fill: rgb(38, 50, 56); transform-origin: 147.21px 348.36px;" id="eld08c3wa1le" class="animable"></circle><circle cx="157.08" cy="348.36" r="3.01" style="fill: rgb(38, 50, 56); transform-origin: 157.08px 348.36px;" id="els55dwoufwlo" class="animable"></circle></g><g id="freepik--Books--inject-2" class="animable" style="transform-origin: 405.721px 338.593px;"><rect x="371.19" y="241.23" width="29.79" height="195.83" rx="2.28" style="fill: rgb(64, 123, 255); transform-origin: 386.085px 339.145px;" id="eldqcd6rscoew" class="animable"></rect><g id="elf4s2gz5r1d"><rect x="371.2" y="241.23" width="29.79" height="195.83" rx="2.28" style="fill: rgb(255, 255, 255); opacity: 0.4; transform-origin: 386.095px 339.145px;" class="animable"></rect></g><rect x="371.2" y="267.8" width="29.79" height="2.77" style="fill: rgb(38, 50, 56); transform-origin: 386.095px 269.185px;" id="elmgjre8w9fe8" class="animable"></rect><rect x="371.2" y="412.19" width="29.79" height="11.1" style="fill: rgb(38, 50, 56); transform-origin: 386.095px 417.74px;" id="elaipeppjkxn9" class="animable"></rect><rect x="371.2" y="403.72" width="29.79" height="2.77" style="fill: rgb(38, 50, 56); transform-origin: 386.095px 405.105px;" id="elsc9b5w0rhh9" class="animable"></rect><path d="M437.62,435.73l-24.23,1.19a2.75,2.75,0,0,1-2.89-2.62l-8.42-170.65-.14-2.69-.19-4-.13-2.69-.5-10.05a2.76,2.76,0,0,1,2.62-2.89l24.24-1.2a2.75,2.75,0,0,1,2.89,2.62l.5,10.05.13,2.69.19,4,.14,2.69,8.42,170.66A2.77,2.77,0,0,1,437.62,435.73Z" style="fill: rgb(64, 123, 255); transform-origin: 420.685px 338.525px;" id="elpr5hop7aikm" class="animable"></path><g id="el1jd20kr57c7"><rect x="416.89" y="374.38" width="14.94" height="52.25" rx="0.75" style="opacity: 0.2; transform-origin: 424.36px 400.505px; transform: rotate(-3.12deg);" class="animable"></rect></g><polygon points="431.5 255.5 401.75 256.96 401.62 254.28 431.37 252.81 431.5 255.5" style="fill: rgb(38, 50, 56); transform-origin: 416.56px 254.885px;" id="elzrs018e0tek" class="animable"></polygon><polygon points="431.83 262.17 402.08 263.65 401.94 260.96 431.69 259.49 431.83 262.17" style="fill: rgb(38, 50, 56); transform-origin: 416.885px 261.57px;" id="el2jtbl654okr" class="animable"></polygon></g><g id="freepik--Letters--inject-2" class="animable" style="transform-origin: 199.01px 145.734px;"><path d="M132.21,124.29c0,2.48.74,3.62,3.14,3.62v.87c-.87-.08-1.73-.12-2.56-.12a13.16,13.16,0,0,0-4.28.58v-4.87c-1.41,3.59-4.13,4.95-6.76,4.95a5.68,5.68,0,0,1-4.29-1.57c-1-1.1-1.37-2.79-1.37-5.39V112c0-2.47-.72-3.64-3.11-3.64v-.86c.86.08,1.73.12,2.55.12a13.64,13.64,0,0,0,4.29-.57v16.2c0,2.55.16,4.73,3.11,4.73,3.22,0,5.58-3.26,5.58-7.47V112c0-2.47-.75-3.64-3.14-3.64v-.86c.86.08,1.73.12,2.55.12a13.55,13.55,0,0,0,4.29-.57Z" style="fill: rgb(38, 50, 56); transform-origin: 124.165px 118.191px;" id="elw0sohkkiooa" class="animable"></path><path d="M260.17,104.28V105c-.89.19-1.89.9-2.66,2.92l-7.9,20.38h-.54l-8.21-21.15c-.67-1.71-1.61-2.12-2.31-2.15v-.68c.9.07,2.31.1,3.59.1,1.74,0,3.37,0,4.3-.1V105c-1.61.06-2.38.31-2.38,1.25a4.47,4.47,0,0,0,.4,1.57l6.09,16.16,5.48-14.2a8.08,8.08,0,0,0,.68-2.75c0-1.47-1-2-2.94-2v-.68c1.28.07,2.69.1,3.87.1A23.57,23.57,0,0,0,260.17,104.28Z" style="fill: rgb(38, 50, 56); transform-origin: 249.36px 116.29px;" id="el40yyoz8wzph" class="animable"></path><path d="M169.37,101.58c1.31,1.33,1.65,2.86,1.65,5.77v11.46c0,1.32.32,2,1.27,2a2.78,2.78,0,0,0,1.85-.87l.46.71a5.54,5.54,0,0,1-3.76,1.51c-2.88,0-3.54-1.73-3.54-3.67a7.2,7.2,0,0,1-6.34,3.67c-2.76,0-5.24-1.39-5.24-4.61s2.52-4.71,6.65-6.44c2.75-1.15,4.93-1.85,4.93-3.51V105c0-3.46-1.69-4.15-3.83-4.15-1.41,0-3.14.28-4.08,1.47a2.55,2.55,0,0,1,1.93,2.52,2.16,2.16,0,0,1-2.42,2.23,2.25,2.25,0,0,1-2.23-2.55,3.66,3.66,0,0,1,1.93-2.94,10.59,10.59,0,0,1,5.78-1.55A7.05,7.05,0,0,1,169.37,101.58Zm-2.07,7.67c-.45.66-1.35,1.08-4,2.35-1.81.87-4,2.05-4,5.23,0,2.48,1.41,3.63,3.3,3.63,1.65,0,3.26-.87,4.65-3.12Z" style="fill: rgb(38, 50, 56); transform-origin: 165.16px 111.084px;" id="el7tr0ede6ivx" class="animable"></path><path d="M119.34,150.05c2,2.06,2.57,4.44,2.57,9v17.82c0,2.06.5,3,2,3a4.37,4.37,0,0,0,2.88-1.35l.72,1.09c-1.78,1.35-3.13,2.35-5.86,2.35-4.47,0-5.51-2.69-5.51-5.7a11.19,11.19,0,0,1-9.86,5.7c-4.3,0-8.15-2.16-8.15-7.17s3.92-7.33,10.34-10c4.29-1.79,7.67-2.88,7.67-5.45v-4c0-5.39-2.63-6.45-6-6.45-2.19,0-4.89.44-6.36,2.29a3.94,3.94,0,0,1,3,3.91c0,2.19-1.47,3.48-3.76,3.48s-3.48-1.66-3.48-4c0-1.88,1.23-3.35,3-4.57a16.54,16.54,0,0,1,9-2.42C115.17,147.63,117.87,148.57,119.34,150.05ZM116.11,162c-.69,1-2.1,1.69-6.14,3.66-2.82,1.35-6.23,3.2-6.23,8.15,0,3.85,2.19,5.63,5.14,5.63,2.56,0,5.07-1.34,7.23-4.85Z" style="fill: rgb(38, 50, 56); transform-origin: 112.82px 164.768px;" id="eljhpbtqvso3" class="animable"></path><path d="M275.23,142.48c5,.67,6.44,3.13,6.44,5.68,0,3.59-2.85,6.11-7.57,6.11-.94,0-2.83-.09-5.42-.09-1.48,0-3,0-3.91.09v-.63c2.14-.09,2.56-.42,2.56-2.71V135.3c0-2.29-.42-2.62-2.56-2.71V132c.88.06,2.47.09,3.85.09,2,0,4-.06,4.75-.06,4.42,0,6.65,2,6.65,5,0,2.23-1.26,4.4-4.79,5.47Zm-5-7.18v7.12h2.12c3.71,0,4.63-2.4,4.63-5.14,0-3.09-1.26-4.69-4.41-4.69C270.67,132.59,270.25,133.13,270.25,135.3ZM278.51,148c0-3.2-1.61-5.06-5.61-5.06h-2.65v8c0,2.2.42,2.62,2.37,2.62C276.74,153.55,278.51,151.56,278.51,148Z" style="fill: rgb(38, 50, 56); transform-origin: 273.22px 143.135px;" id="el5vtxctl13j8" class="animable"></path><path d="M188.55,166.3c-2.06.09-2.46.4-2.46,2.61V184c0,2.2.4,2.51,2.46,2.6v.61c-1-.06-2.46-.09-3.85-.09-1.59,0-3,0-3.88.09v-.61c2.05-.09,2.44-.4,2.44-2.6V167.72l-7.3,19.6h-.49l-7.64-19.69v16c0,2.22.4,2.82,2.75,2.91v.61c-.73-.06-2.06-.09-3.09-.09s-2.15,0-2.82.09v-.61c2.06-.09,2.46-.69,2.46-2.91V168.91c0-2.21-.4-2.52-2.46-2.61v-.61c.67.06,1.79.09,2.82.09.88,0,1.92,0,2.59-.09l6.66,17.6,6.52-17.51h1.44c1.39,0,2.9,0,3.85-.09Z" style="fill: rgb(38, 50, 56); transform-origin: 176.61px 176.505px;" id="elmytqsmxnfvb" class="animable"></path><path d="M299.89,177.69c0,8.29-5,13.77-13.78,13.77-1.15,0-3.7-.11-5.34-.11s-3.66,0-4.72.11v-.76c2.59-.11,3.09-.5,3.09-3.27V168.54c0-2.77-.5-3.16-3.09-3.27v-.76c.88.05,2.31.13,3.72.13l.93,0c1.75,0,4.3-.11,5.75-.11C295.52,164.51,299.89,169.19,299.89,177.69Zm-17.22-9.22v19c0,2.66.5,3.28,2.86,3.28,8.3,0,10.55-4.65,10.55-12.94,0-8.54-2.7-12.65-10.58-12.65C283.17,165.19,282.67,165.84,282.67,168.47Z" style="fill: rgb(38, 50, 56); transform-origin: 287.97px 177.985px;" id="elgwqqt14mm08" class="animable"></path><path d="M166.93,137.44c-1.28.05-1.53.25-1.53,1.62v9.33c0,1.37.25,1.56,1.53,1.56h1.37c2.36,0,2.82-.9,3.09-3.52h.43c0,.4,0,.94,0,1.54s0,1.46.13,2.41c-1.28,0-3.05,0-4.31,0s-3.61,0-5.46,0V150c1.28-.05,1.53-.24,1.53-1.61v-9.33c0-1.37-.25-1.57-1.53-1.62v-.38c.53,0,1.44.06,2.41.06s1.81,0,2.39-.06Z" style="fill: rgb(38, 50, 56); transform-origin: 167.065px 143.72px;" id="el7o2gi24shsf" class="animable"></path><path d="M260.07,168.76c-1.39.06-1.66.27-1.66,1.76v10.21c0,1.5.27,1.71,1.66,1.71h1.51c2.57,0,3.08-1,3.37-3.85h.48c0,.43-.06,1-.06,1.69,0,.51,0,1.58.14,2.63-1.4-.06-3.34-.06-4.71-.06s-3.95,0-6,.06v-.41c1.4-.06,1.67-.27,1.67-1.77V170.52c0-1.49-.27-1.7-1.67-1.76v-.41c.57,0,1.57.06,2.63.06s2,0,2.61-.06Z" style="fill: rgb(38, 50, 56); transform-origin: 260.155px 175.63px;" id="elc3de6ou0ra" class="animable"></path><path d="M152.66,161v.35c-.46.1-1,.47-1.38,1.51l-4.08,10.54h-.28l-4.25-10.94c-.35-.88-.83-1.09-1.2-1.11V161c.47,0,1.2.05,1.86.05.9,0,1.74,0,2.23-.05v.35c-.83,0-1.23.16-1.23.64a2.28,2.28,0,0,0,.2.82l3.15,8.36,2.84-7.35a4.18,4.18,0,0,0,.35-1.42c0-.76-.53-1-1.52-1.05V161c.66,0,1.39.05,2,.05S152.31,161.06,152.66,161Z" style="fill: rgb(38, 50, 56); transform-origin: 147.065px 167.2px;" id="els1f3mid00k" class="animable"></path><path d="M232.22,142.06c0,1.27.38,1.86,1.61,1.86v.45c-.45,0-.89-.06-1.31-.06a6.72,6.72,0,0,0-2.21.3V142.1a3.64,3.64,0,0,1-3.47,2.55,2.91,2.91,0,0,1-2.2-.81,3.93,3.93,0,0,1-.7-2.77v-5.31c0-1.27-.37-1.87-1.6-1.87v-.45a11.62,11.62,0,0,0,1.31.07,7.29,7.29,0,0,0,2.2-.29v8.32c0,1.31.08,2.43,1.6,2.43s2.86-1.68,2.86-3.84v-4.37c0-1.27-.38-1.87-1.61-1.87v-.45a11.88,11.88,0,0,0,1.31.07,7.31,7.31,0,0,0,2.21-.29Z" style="fill: rgb(38, 50, 56); transform-origin: 228.085px 138.938px;" id="eley0p165yfof" class="animable"></path><path d="M203.35,128c4.92.65,6.34,3.08,6.34,5.6,0,3.54-2.8,6-7.46,6-.93,0-2.8-.1-5.35-.1-1.45,0-3,0-3.85.1V139c2.11-.09,2.52-.41,2.52-2.67V120.93c0-2.26-.41-2.58-2.52-2.67v-.63c.86.06,2.43.1,3.79.1,2,0,4-.07,4.69-.07,4.36,0,6.56,2,6.56,4.89,0,2.2-1.24,4.34-4.72,5.41Zm-4.92-7.09v7h2.1c3.65,0,4.57-2.37,4.57-5.07,0-3.06-1.25-4.63-4.36-4.63C198.84,118.26,198.43,118.79,198.43,120.93Zm8.15,12.55c0-3.16-1.59-5-5.54-5h-2.61v7.86c0,2.17.41,2.58,2.34,2.58C204.84,138.93,206.58,137,206.58,133.48Z" style="fill: rgb(38, 50, 56); transform-origin: 201.36px 128.615px;" id="elni139vs6zh9" class="animable"></path><path d="M237.37,165.91a1.92,1.92,0,0,0,1,.42c.37,0,.53-.45.64-1.3h.68c-.09,1-.14,2.3-.14,6h-.68c-.22-2.81-1.57-5.67-4.84-5.67a3.36,3.36,0,0,0-3.6,3.42c0,2.68,2.31,3.75,5,5.4,3.06,1.92,5.31,3.47,5.31,6.64,0,3.74-2.84,5.6-6.26,5.6a6.91,6.91,0,0,1-4-1.09,1.93,1.93,0,0,0-1-.42c-.38,0-.54.44-.65,1.29h-.68c.09-1.21.12-2.9.12-7.07h.67c.25,3.57,1.6,6.7,5.37,6.7a3.63,3.63,0,0,0,3.83-3.93c0-2.39-1.85-3.74-4.59-5.39s-5.25-3.28-5.25-6.6c0-3.49,2.63-5.12,5.54-5.12A5.57,5.57,0,0,1,237.37,165.91Z" style="fill: rgb(38, 50, 56); transform-origin: 234.445px 175.606px;" id="elxqwtapsocz9" class="animable"></path><path d="M212.85,171.67a5.77,5.77,0,0,1-5.51,4c-4.28,0-6.78-3.13-6.78-7.65,0-5.18,2.62-8.36,6.66-8.36,3.46,0,5.52,2,5.52,6.48h-9.22a15.82,15.82,0,0,0-.1,1.88c0,4.05,2.25,6.41,4.51,6.41a4.48,4.48,0,0,0,4.33-2.95Zm-9.37-6.14h6.42c.1-2.88-.82-5.35-2.79-5.35C205.35,160.18,203.8,161.82,203.48,165.53Z" style="fill: rgb(38, 50, 56); transform-origin: 206.705px 167.665px;" id="elm0vkqj4kv7l" class="animable"></path></g><g id="freepik--Character--inject-2" class="animable" style="transform-origin: 106.456px 366.413px;"><path d="M88.39,337.52,77.82,360.69,94.55,369l6.5-13.5c2.4-4.29,1.17-10.59-2-14.37C97.79,339.6,93.66,336.28,88.39,337.52Z" style="fill: rgb(64, 123, 255); transform-origin: 90.0648px 353.124px;" id="el2t9n3ugqbgg" class="animable"></path><g id="elhuvob3hmte"><path d="M88.39,337.52,77.82,360.69,94.55,369l6.5-13.5c2.4-4.29,1.17-10.59-2-14.37C97.79,339.6,93.66,336.28,88.39,337.52Z" style="fill: rgb(255, 255, 255); opacity: 0.2; transform-origin: 90.0648px 353.124px;" class="animable"></path></g><path d="M117.16,327.6s17.47,4.08,21.8,11.34,4.17,22.41,1,39.45,1.32,18.22-7.17,25.23-45.77,6.3-48.94-1.74c-2.62-6.67,8.47-31.05,6.13-43.07s-6.06-19,1.32-24.59S117.16,327.6,117.16,327.6Z" style="fill: rgb(64, 123, 255); transform-origin: 112.864px 368.016px;" id="el9nxb7i5t7v" class="animable"></path><g id="eltcrmov2z1h"><path d="M117.16,327.6s17.47,4.08,21.8,11.34,4.17,22.41,1,39.45,1.32,18.22-7.17,25.23-45.77,6.3-48.94-1.74c-2.62-6.67,8.47-31.05,6.13-43.07s-6.06-19,1.32-24.59S117.16,327.6,117.16,327.6Z" style="fill: rgb(255, 255, 255); opacity: 0.4; transform-origin: 112.864px 368.016px;" class="animable"></path></g><path d="M96.59,292.79c-1.79-1.21-6.6-.23-8.18,3.29-1.69,3.75-3.4,10.36-5.73,9.26a4.69,4.69,0,0,0,4.88,2.17s-1.49,2.65-4.24,2.44a7.33,7.33,0,0,0,7,3.34c4.55-.39,7.72-14.39,8.21-16.68C98,294.34,97.87,294.47,96.59,292.79Z" style="fill: rgb(38, 50, 56); transform-origin: 90.605px 302.816px;" id="el1ej16kplbcb" class="animable"></path><path d="M99.45,292.71a14.54,14.54,0,0,1,11.58.7c2.34,1.22,4.36,3.08,4.31,5.88a156.52,156.52,0,0,1-2,17.4l-22-10s-1.48-6,.82-9.62C93.42,295.19,96.64,293.7,99.45,292.71Z" style="fill: rgb(38, 50, 56); transform-origin: 103.106px 304.259px;" id="elu8c32aad43" class="animable"></path><path d="M96,293.17s5.34-6.07,15.36-1.72,4.13,17.85,4.13,17.85-1.55,5.72,1.15,6.41A6.91,6.91,0,0,1,114,316.8s1.19,1.35,2.22,1c0,0-1.34.93-4.24.37S96,293.17,96,293.17Z" style="fill: rgb(38, 50, 56); transform-origin: 106.605px 304.115px;" id="eldtcbiz46snq" class="animable"></path><path d="M103.75,324.77h0l0,.08,1.38,3.6a12.5,12.5,0,0,1,.19,4.07c-.4,1.4-.33,3.81,2.09,3.48,3.64-.49,9.8-6.43,9.87-8.07-2.23-4.82-4.27-10.52-4.51-15.32l-3.69,5Z" style="fill: rgb(255, 181, 115); transform-origin: 110.515px 324.32px;" id="elxucn5gzu9i" class="animable"></path><g id="el3yhfducd6js"><g style="opacity: 0.2; transform-origin: 106.803px 323.625px;" class="animable"><path d="M103.79,324.86l1.38,3.6c2.18-1.29,4.33-3.8,4.62-6.29.2-1.8-.77-3.36-1.49-3.38Z" id="eleke385gq7fs" class="animable" style="transform-origin: 106.803px 323.625px;"></path></g></g><path d="M93.7,318.07c.3.79.63,1.56,1,2.31,3,6.68,11.66,6.39,16.42.73l0,0a12.67,12.67,0,0,0,1.17-1.64c2.9-4.8,1.69-8.12.35-15.81a10.63,10.63,0,0,0-16.73-6.92C89.81,301.06,90.66,310.24,93.7,318.07Z" style="fill: rgb(255, 181, 115); transform-origin: 102.715px 310.047px;" id="elkpjpyxngn4" class="animable"></path><path d="M102,310.55c.15.6,0,1.17-.44,1.28s-.84-.31-1-.91,0-1.18.43-1.28.84.31,1,.91" style="fill: rgb(38, 50, 56); transform-origin: 101.278px 310.736px;" id="el8wnfgol4uxs" class="animable"></path><path d="M95.67,312.08c.16.61,0,1.18-.43,1.28s-.84-.31-1-.91,0-1.17.44-1.27.84.3,1,.9" style="fill: rgb(38, 50, 56); transform-origin: 94.9551px 312.27px;" id="el777f7oiikn" class="animable"></path><path d="M100.88,318.68l-.21,0a.25.25,0,0,1-.25-.24.24.24,0,0,1,.24-.24,3.48,3.48,0,0,0,3.35-3.73.24.24,0,1,1,.48,0A4,4,0,0,1,100.88,318.68Z" style="fill: rgb(38, 50, 56); transform-origin: 102.458px 316.455px;" id="elnhqyzmhedid" class="animable"></path><path d="M112.79,304.34s-2.32.36-2.21,2.37.34,2.25.34,2.25l-2.7.87s0-7.71-2-7.4-.18-3.36-1.44-3.73c-3-.87-10.75-.13-13.26,4.86A11.87,11.87,0,0,1,95.23,296c3.43-2.87,10.79-4.17,14.17-.84S112.79,304.34,112.79,304.34Z" style="fill: rgb(38, 50, 56); transform-origin: 102.155px 301.509px;" id="el8bbvvjjebar" class="animable"></path><path d="M117.09,307.91a7.45,7.45,0,0,1-2.44,5.12c-1.94,1.72-4.05.26-4.46-2.17-.37-2.19.19-5.72,2.6-6.52a3.34,3.34,0,0,1,4.3,3.57" style="fill: rgb(255, 181, 115); transform-origin: 113.599px 308.986px;" id="el8aflyj6hnls" class="animable"></path><path d="M92.44,309.81a.29.29,0,0,0,.22-.21,1.61,1.61,0,0,1,.74-1,1.79,1.79,0,0,1,1.27-.1.31.31,0,0,0,.39-.2.31.31,0,0,0-.2-.39,2.4,2.4,0,0,0-1.75.15,2.19,2.19,0,0,0-1,1.41.3.3,0,0,0,.21.38A.22.22,0,0,0,92.44,309.81Z" style="fill: rgb(38, 50, 56); transform-origin: 93.5856px 308.83px;" id="elbooa6cu961n" class="animable"></path><path d="M103.79,307.4a.33.33,0,0,0,.13-.07.34.34,0,0,0,0-.48,2.69,2.69,0,0,0-1.76-.82,2.42,2.42,0,0,0-1.77.79.34.34,0,1,0,.47.49,1.78,1.78,0,0,1,1.28-.59,2.09,2.09,0,0,1,1.28.59A.33.33,0,0,0,103.79,307.4Z" style="fill: rgb(38, 50, 56); transform-origin: 102.145px 306.727px;" id="ela0sw153yj0c" class="animable"></path><path d="M97.57,310.11a6.82,6.82,0,0,1-1.22,3.72c-1.24,1.67,2.09,2.1,2.09,2.1Z" style="fill: rgb(237, 137, 62); transform-origin: 97.2567px 313.02px;" id="eletpt1orsfwp" class="animable"></path><path d="M111.4,404.58s-53-27.72-60.12-7.07c-5.7,16.49,31.79,39.67,64.28,41.4Z" style="fill: rgb(38, 50, 56); transform-origin: 83.1306px 414.387px;" id="elg6vzhwkwlr" class="animable"></path><polygon points="84.93 430.57 97.42 430.04 92.4 436.63 80.33 437.39 84.93 430.57" style="fill: rgb(255, 181, 115); transform-origin: 88.875px 433.715px;" id="elgd1dweswb3l" class="animable"></polygon><path d="M88.3,430.12s-8.72-2.41-12.3-.45c-5.62,3.07-15.09,7.25-14,11.85s20.53-3.4,20.53-3.4Z" style="fill: rgb(64, 123, 255); transform-origin: 75.1068px 435.924px;" id="el9uqd68vbcc5" class="animable"></path><path d="M84.72,433s3,.21,2.33,2.5-4.55,2.62-4.55,2.62Z" style="fill: rgb(64, 123, 255); transform-origin: 84.8238px 435.56px;" id="elpmw046jtgka" class="animable"></path><path d="M102.35,403.64s57.45-24.61,59.8-1.12c1.74,17.32-34.11,32.75-73,35.57Z" style="fill: rgb(38, 50, 56); transform-origin: 125.68px 415.226px;" id="elb9l4zem89p5" class="animable"></path><g id="ellfit96k04q9"><path d="M114.39,430c-9.48-6.69-24.24-15.84-40-25.46,12.66,6.32,21.23,10.95,27.5,14.75,7.5-4.58,18-8.05,26.81-10.72-7.69,4-18.15,8.62-25.06,12.69C111.57,426.75,114.26,429.88,114.39,430Z" style="opacity: 0.2; transform-origin: 101.545px 417.27px;" class="animable"></path></g><polygon points="120.12 431.39 114.73 432.08 115.47 438.16 125.07 437.95 120.12 431.39" style="fill: rgb(255, 181, 115); transform-origin: 119.9px 434.775px;" id="el77i7x959ipp" class="animable"></polygon><path d="M116.73,431.12S125.3,428.25,129,430c5.77,2.76,15.45,6.42,14.64,11.08s-20.69-2.3-20.69-2.3Z" style="fill: rgb(64, 123, 255); transform-origin: 130.209px 436.061px;" id="el950zqe8f9t" class="animable"></path><path d="M120.45,433.8s-2.93.37-2.19,2.62,4.68,2.37,4.68,2.37Z" style="fill: rgb(64, 123, 255); transform-origin: 120.54px 436.295px;" id="el9t9e0i1nssk" class="animable"></path><path d="M143,354.1c1.32,5.78,2.37,11.48,3.16,17.33.41,2.92.73,5.86,1,8.85a90.17,90.17,0,0,1,.32,9.3c0,.83-.09,1.69-.19,2.62a16.87,16.87,0,0,1-.7,3.37c-.06.17-.12.36-.22.59s-.16.39-.3.67-.26.49-.46.8l-.34.47a4.64,4.64,0,0,1-.41.48c-.17.18-.35.36-.54.53l-.31.26-.45.3a6.34,6.34,0,0,1-1.74.78,7.41,7.41,0,0,1-2.25.22,9.29,9.29,0,0,1-2.33-.47,15.19,15.19,0,0,1-1.5-.59,35.94,35.94,0,0,1-4.4-2.49c-1.31-.85-2.54-1.75-3.75-2.64A153.57,153.57,0,0,1,114.12,383l3.93-5.1c4.88,2.91,9.84,5.86,14.71,8.53,1.22.66,2.45,1.28,3.63,1.86a24.52,24.52,0,0,0,3.33,1.38,4,4,0,0,0,.54.12c.1,0,.16,0-.22-.07a3.44,3.44,0,0,0-1.17.12,4.46,4.46,0,0,0-1.25.55,2.62,2.62,0,0,0-.34.24l-.21.17a2.73,2.73,0,0,0-.35.33,4.71,4.71,0,0,0-.76,1.1,5.14,5.14,0,0,1,0-.89c0-.5,0-1.09-.07-1.69-.18-2.47-.55-5.22-1-7.93s-.94-5.5-1.44-8.27l-3.14-16.68Z" style="fill: rgb(255, 181, 115); transform-origin: 130.807px 377.391px;" id="elnme7dfhhf7a" class="animable"></path><path d="M90,380a115.66,115.66,0,0,1-8.4,10.61c-.74.86-1.54,1.7-2.38,2.55a32.76,32.76,0,0,1-2.85,2.58c-.29.23-.63.45-1,.71a7.58,7.58,0,0,1-1.79.84,7.39,7.39,0,0,1-.93.21c-.17,0-.49,0-.73,0h-.4l-.54-.05-.58-.14-.63-.21a5.11,5.11,0,0,1-1.31-.78,6.06,6.06,0,0,1-1-1.16,4.87,4.87,0,0,1-.57-1.08l-.1-.28-.06-.19-.11-.4a6.41,6.41,0,0,1-.1-.72c0-.16,0-.34,0-.52s0-.33,0-.43,0-.5.06-.67l.1-.52c.15-.71.31-1.46.48-2.05s.32-1.21.51-1.76c1.77-4.86,3.37-8.69,5.11-12.82s3.88-8.72,5.87-12.66l9.68,4.81c-1.73,3.86-3.55,8.83-5.4,12.63,0,0,0,0,0,0l3-2.46Z" style="fill: rgb(255, 181, 115); transform-origin: 78.26px 379.28px;" id="elekfooqcvfhu" class="animable"></path><g id="elmllojheny5a"><path d="M84.27,376.3s-10.42,6.28-12.37,8.45c0,0,7.36-7.33,13.08-11Z" style="opacity: 0.2; transform-origin: 78.44px 379.25px;" class="animable"></path></g><path d="M137.59,337.35c3.49,3.15,8.23,12,9.28,29.47l-16.45,1s-4.11-15.55-3.88-24.54c.09-3.37,1.29-5.33,2.76-6.45A6.52,6.52,0,0,1,137.59,337.35Z" style="fill: rgb(64, 123, 255); transform-origin: 136.7px 351.703px;" id="elx7zkudi8ybb" class="animable"></path><g id="eliwc0tlbpd8g"><path d="M137.59,337.35c3.49,3.15,8.23,12,9.28,29.47l-16.45,1s-4.11-15.55-3.88-24.54c.09-3.37,1.29-5.33,2.76-6.45A6.52,6.52,0,0,1,137.59,337.35Z" style="fill: rgb(255, 255, 255); opacity: 0.2; transform-origin: 136.7px 351.703px;" class="animable"></path></g><polygon points="86.29 385.41 101.03 390.5 117.67 388.75 115.72 365.19 99.58 366.64 84.77 361.74 86.29 385.41" style="fill: rgb(64, 123, 255); transform-origin: 101.22px 376.12px;" id="elsxbvvfgf5o" class="animable"></polygon><polygon points="85.3 361.92 86.46 361.13 99.64 365.54 114.91 364.13 115 365.26 99.58 366.64 85.3 361.92" style="fill: rgb(245, 245, 245); transform-origin: 100.15px 363.885px;" id="elmm78bo34qx" class="animable"></polygon><g id="elhirg0mfgz5w"><polygon points="99.58 366.64 101.03 390.5 86.29 385.41 84.77 361.74 99.58 366.64" style="opacity: 0.2; transform-origin: 92.9px 376.12px;" class="animable"></polygon></g><path d="M118.4,376s.44-.45-.22-2.08a8.41,8.41,0,0,0-2-3l.34,4.9s-3.23,1.72-3.44,4.25c-.42,5.1,2.91,6.46,4,6.74s2.84-2.67,2.91-5.74A8.09,8.09,0,0,0,118.4,376Z" style="fill: rgb(255, 181, 115); transform-origin: 116.519px 378.874px;" id="ellxub6nay32" class="animable"></path><path d="M83.63,374.44s-.48-.39,0-2.09a8.64,8.64,0,0,1,1.61-3.24l.34,4.88s3.33,1.34,3.85,3.83c1,5-2.11,6.76-3.12,7.18s-3.14-2.32-3.59-5.35A8.22,8.22,0,0,1,83.63,374.44Z" style="fill: rgb(255, 181, 115); transform-origin: 86.1237px 377.076px;" id="el4aw8evsu1kk" class="animable"></path></g><defs>     <filter id="active" height="200%">         <feMorphology in="SourceAlpha" result="DILATED" operator="dilate" radius="2"></feMorphology>                <feFlood flood-color="#32DFEC" flood-opacity="1" result="PINK"></feFlood>        <feComposite in="PINK" in2="DILATED" operator="in" result="OUTLINE"></feComposite>        <feMerge>            <feMergeNode in="OUTLINE"></feMergeNode>            <feMergeNode in="SourceGraphic"></feMergeNode>        </feMerge>    </filter>    <filter id="hover" height="200%">        <feMorphology in="SourceAlpha" result="DILATED" operator="dilate" radius="2"></feMorphology>                <feFlood flood-color="#ff0000" flood-opacity="0.5" result="PINK"></feFlood>        <feComposite in="PINK" in2="DILATED" operator="in" result="OUTLINE"></feComposite>        <feMerge>            <feMergeNode in="OUTLINE"></feMergeNode>            <feMergeNode in="SourceGraphic"></feMergeNode>        </feMerge>            <feColorMatrix type="matrix" values="0   0   0   0   0                0   1   0   0   0                0   0   0   0   0                0   0   0   1   0 "></feColorMatrix>    </filter></defs></svg>